<svg width="96" height="91" viewBox="0 0 96 91" fill="none" xmlns="http://www.w3.org/2000/svg">
<ellipse cx="48" cy="45.5" rx="48" ry="45.5" fill="#9E24E9"/>
<path fill-rule="evenodd" clip-rule="evenodd" d="M81.0061 78.8634C71.9991 86.4517 60.512 91 47.9998 91C35.635 91 24.2711 86.5581 15.3126 79.13L18.8962 71.9046C21.2098 67.2488 25.9484 64.3111 31.1281 64.3213H65.3228C70.5025 64.3111 75.2412 67.2488 77.5547 71.9046L81.0061 78.8634ZM48.2255 18.6385C38.1801 18.6385 30.0368 26.8197 30.0368 36.9116C30.0368 41.758 31.9531 46.4058 35.3641 49.8327C38.7752 53.2595 43.4015 55.1847 48.2255 55.1847C58.2708 55.1847 66.4142 47.0036 66.4142 36.9116C66.4142 26.8197 58.2708 18.6385 48.2255 18.6385Z" fill="#DFB5FF"/>
</svg>
