<svg width="96" height="91" viewBox="0 0 96 91" fill="none" xmlns="http://www.w3.org/2000/svg">
<ellipse cx="48" cy="45.5" rx="48" ry="45.5" fill="#DFB5FF"/>
<path fill-rule="evenodd" clip-rule="evenodd" d="M81.0062 78.8634C71.9992 86.4517 60.5121 91 48 91C35.6351 91 24.2712 86.5581 15.3127 79.13L18.8963 71.9046C21.2099 67.2488 25.9485 64.3111 31.1282 64.3213H65.323C70.5027 64.3111 75.2413 67.2488 77.5549 71.9046L81.0062 78.8634ZM48.2256 18.6385C38.1802 18.6385 30.0369 26.8197 30.0369 36.9116C30.0369 41.758 31.9532 46.4058 35.3642 49.8327C38.7753 53.2595 43.4016 55.1847 48.2256 55.1847C58.2709 55.1847 66.4143 47.0036 66.4143 36.9116C66.4143 26.8197 58.2709 18.6385 48.2256 18.6385Z" fill="#9E24E9"/>
</svg>
